<svg id="SvgjsSvg1006" width="977.5" height="653" xmlns="http://www.w3.org/2000/svg" version="1.1" xmlns:xlink="http://www.w3.org/1999/xlink" xmlns:svgjs="http://svgjs.com/svgjs"><defs id="SvgjsDefs1007"><marker id="SvgjsMarker1034" markerWidth="16" markerHeight="12" refX="16" refY="6" viewBox="0 0 16 12" orient="auto" markerUnits="userSpaceOnUse" stroke-dasharray="0,0"><path id="SvgjsPath1035" d="M0,2 L14,6 L0,11 L0,2" fill="#323232" stroke="#323232" stroke-width="2"></path></marker><marker id="SvgjsMarker1038" markerWidth="16" markerHeight="12" refX="16" refY="6" viewBox="0 0 16 12" orient="auto" markerUnits="userSpaceOnUse" stroke-dasharray="0,0"><path id="SvgjsPath1039" d="M0,2 L14,6 L0,11 L0,2" fill="#323232" stroke="#323232" stroke-width="2"></path></marker><marker id="SvgjsMarker1050" markerWidth="16" markerHeight="12" refX="16" refY="6" viewBox="0 0 16 12" orient="auto" markerUnits="userSpaceOnUse" stroke-dasharray="0,0"><path id="SvgjsPath1051" d="M0,2 L14,6 L0,11 L0,2" fill="#323232" stroke="#323232" stroke-width="2"></path></marker><marker id="SvgjsMarker1062" markerWidth="16" markerHeight="12" refX="16" refY="6" viewBox="0 0 16 12" orient="auto" markerUnits="userSpaceOnUse" stroke-dasharray="0,0"><path id="SvgjsPath1063" d="M0,2 L14,6 L0,11 L0,2" fill="#323232" stroke="#323232" stroke-width="2"></path></marker><marker id="SvgjsMarker1074" markerWidth="16" markerHeight="12" refX="16" refY="6" viewBox="0 0 16 12" orient="auto" markerUnits="userSpaceOnUse" stroke-dasharray="0,0"><path id="SvgjsPath1075" d="M0,2 L14,6 L0,11 L0,2" fill="#323232" stroke="#323232" stroke-width="2"></path></marker><marker id="SvgjsMarker1086" markerWidth="16" markerHeight="12" refX="16" refY="6" viewBox="0 0 16 12" orient="auto" markerUnits="userSpaceOnUse" stroke-dasharray="0,0"><path id="SvgjsPath1087" d="M0,2 L14,6 L0,11 L0,2" fill="#323232" stroke="#323232" stroke-width="2"></path></marker></defs><g id="SvgjsG1008" transform="translate(323.5,25)"><path id="SvgjsPath1009" d="M 0 53.5C 0 -17.833333333333332 107 -17.833333333333332 107 53.5C 107 124.83333333333333 0 124.83333333333333 0 53.5Z" stroke="rgba(50,50,50,1)" stroke-width="2" fill-opacity="1" fill="#ffffff"></path><g id="SvgjsG1010"><text id="SvgjsText1011" font-family="微软雅黑" text-anchor="middle" font-size="13px" width="87px" fill="#323232" font-weight="400" align="middle" lineHeight="125%" anchor="middle" family="微软雅黑" size="13px" weight="400" font-style="" opacity="1" y="35.875" transform="rotate(0)"><tspan id="SvgjsTspan1012" dy="16" x="53.5"><tspan id="SvgjsTspan1013" style="text-decoration:;">SQL源端</tspan></tspan><tspan id="SvgjsTspan1014" dy="16" x="53.5"><tspan id="SvgjsTspan1015" style="text-decoration:;">（MySQL t1）</tspan></tspan></text></g></g><g id="SvgjsG1016" transform="translate(573.5,25)"><path id="SvgjsPath1017" d="M 0 53.5C 0 -17.833333333333332 107 -17.833333333333332 107 53.5C 107 124.83333333333333 0 124.83333333333333 0 53.5Z" stroke="rgba(50,50,50,1)" stroke-width="2" fill-opacity="1" fill="#ffffff"></path><g id="SvgjsG1018"><text id="SvgjsText1019" font-family="微软雅黑" text-anchor="middle" font-size="13px" width="87px" fill="#323232" font-weight="400" align="middle" lineHeight="125%" anchor="middle" family="微软雅黑" size="13px" weight="400" font-style="" opacity="1" y="35.875" transform="rotate(0)"><tspan id="SvgjsTspan1020" dy="16" x="53.5"><tspan id="SvgjsTspan1021" style="text-decoration:;">SQL源端</tspan></tspan><tspan id="SvgjsTspan1022" dy="16" x="53.5"><tspan id="SvgjsTspan1023" style="text-decoration:;">（ES t2）</tspan></tspan></text></g></g><g id="SvgjsG1024" transform="translate(448.5,200)"><path id="SvgjsPath1025" d="M 0 53.5C 0 -17.833333333333332 107 -17.833333333333332 107 53.5C 107 124.83333333333333 0 124.83333333333333 0 53.5Z" stroke="rgba(50,50,50,1)" stroke-width="2" fill-opacity="1" fill="#ffffff"></path><g id="SvgjsG1026"><text id="SvgjsText1027" font-family="微软雅黑" text-anchor="middle" font-size="13px" width="87px" fill="#323232" font-weight="400" align="middle" lineHeight="125%" anchor="middle" family="微软雅黑" size="13px" weight="400" font-style="" opacity="1" y="35.875" transform="rotate(0)"><tspan id="SvgjsTspan1028" dy="16" x="53.5"><tspan id="SvgjsTspan1029" style="text-decoration:;">SQL转换</tspan></tspan><tspan id="SvgjsTspan1030" dy="16" x="53.5"><tspan id="SvgjsTspan1031" style="text-decoration:;">（t3）</tspan></tspan></text></g></g><g id="SvgjsG1032"><path id="SvgjsPath1033" d="M377 132L377 166L502 166L502 200" stroke="#323232" stroke-width="2" fill="none" marker-end="url(#SvgjsMarker1034)"></path></g><g id="SvgjsG1036"><path id="SvgjsPath1037" d="M627 132L627 166L502 166L502 200" stroke="#323232" stroke-width="2" fill="none" marker-end="url(#SvgjsMarker1038)"></path></g><g id="SvgjsG1040" transform="translate(448.5,361)"><path id="SvgjsPath1041" d="M 0 53.5C 0 -17.833333333333332 107 -17.833333333333332 107 53.5C 107 124.83333333333333 0 124.83333333333333 0 53.5Z" stroke="rgba(50,50,50,1)" stroke-width="2" fill-opacity="1" fill="#ffffff"></path><g id="SvgjsG1042"><text id="SvgjsText1043" font-family="微软雅黑" text-anchor="middle" font-size="13px" width="87px" fill="#323232" font-weight="400" align="middle" lineHeight="125%" anchor="middle" family="微软雅黑" size="13px" weight="400" font-style="" opacity="1" y="35.875" transform="rotate(0)"><tspan id="SvgjsTspan1044" dy="16" x="53.5"><tspan id="SvgjsTspan1045" style="text-decoration:;">csv输出</tspan></tspan><tspan id="SvgjsTspan1046" dy="16" x="53.5"><tspan id="SvgjsTspan1047" style="text-decoration:;">（t4）</tspan></tspan></text></g></g><g id="SvgjsG1048"><path id="SvgjsPath1049" d="M502 307L502 334L502 334L502 361" stroke="#323232" stroke-width="2" fill="none" marker-end="url(#SvgjsMarker1050)"></path></g><g id="SvgjsG1052" transform="translate(448.5,521)"><path id="SvgjsPath1053" d="M 0 53.5C 0 -17.833333333333332 107 -17.833333333333332 107 53.5C 107 124.83333333333333 0 124.83333333333333 0 53.5Z" stroke="rgba(50,50,50,1)" stroke-width="2" fill-opacity="1" fill="#ffffff"></path><g id="SvgjsG1054"><text id="SvgjsText1055" font-family="微软雅黑" text-anchor="middle" font-size="13px" width="87px" fill="#323232" font-weight="400" align="middle" lineHeight="125%" anchor="middle" family="微软雅黑" size="13px" weight="400" font-style="" opacity="1" y="35.875" transform="rotate(0)"><tspan id="SvgjsTspan1056" dy="16" x="53.5"><tspan id="SvgjsTspan1057" style="text-decoration:;">Shell</tspan></tspan><tspan id="SvgjsTspan1058" dy="16" x="53.5"><tspan id="SvgjsTspan1059" style="text-decoration:;">（t5）</tspan></tspan></text></g></g><g id="SvgjsG1060"><path id="SvgjsPath1061" d="M502 468L502 494.5L502 494.5L502 521" stroke="#323232" stroke-width="2" fill="none" marker-end="url(#SvgjsMarker1062)"></path></g><g id="SvgjsG1064" transform="translate(658.5,521)"><path id="SvgjsPath1065" d="M 0 53.5C 0 -17.833333333333332 107 -17.833333333333332 107 53.5C 107 124.83333333333333 0 124.83333333333333 0 53.5Z" stroke="rgba(50,50,50,1)" stroke-width="2" fill-opacity="1" fill="#ffffff"></path><g id="SvgjsG1066"><text id="SvgjsText1067" font-family="微软雅黑" text-anchor="middle" font-size="13px" width="87px" fill="#323232" font-weight="400" align="middle" lineHeight="125%" anchor="middle" family="微软雅黑" size="13px" weight="400" font-style="" opacity="1" y="35.875" transform="rotate(0)"><tspan id="SvgjsTspan1068" dy="16" x="53.5"><tspan id="SvgjsTspan1069" style="text-decoration:;">csv输入</tspan></tspan><tspan id="SvgjsTspan1070" dy="16" x="53.5"><tspan id="SvgjsTspan1071" style="text-decoration:;">（t6）</tspan></tspan></text></g></g><g id="SvgjsG1072"><path id="SvgjsPath1073" d="M555.5 574.5L607 574.5L607 574.5L658.5 574.5" stroke="#323232" stroke-width="2" fill="none" marker-end="url(#SvgjsMarker1074)"></path></g><g id="SvgjsG1076" transform="translate(845.5,521)"><path id="SvgjsPath1077" d="M 0 53.5C 0 -17.833333333333332 107 -17.833333333333332 107 53.5C 107 124.83333333333333 0 124.83333333333333 0 53.5Z" stroke="rgba(50,50,50,1)" stroke-width="2" fill-opacity="1" fill="#ffffff"></path><g id="SvgjsG1078"><text id="SvgjsText1079" font-family="微软雅黑" text-anchor="middle" font-size="13px" width="87px" fill="#323232" font-weight="400" align="middle" lineHeight="125%" anchor="middle" family="微软雅黑" size="13px" weight="400" font-style="" opacity="1" y="35.875" transform="rotate(0)"><tspan id="SvgjsTspan1080" dy="16" x="53.5"><tspan id="SvgjsTspan1081" style="text-decoration:;font-size: inherit;">SQL目标端</tspan></tspan><tspan id="SvgjsTspan1082" dy="16" x="53.5"><tspan id="SvgjsTspan1083" style="text-decoration:;font-size: inherit;">（ES）</tspan></tspan></text></g></g><g id="SvgjsG1084"><path id="SvgjsPath1085" d="M765.5 574.5L805.5 574.5L805.5 574.5L845.5 574.5" stroke="#323232" stroke-width="2" fill="none" marker-end="url(#SvgjsMarker1086)"></path></g><g id="SvgjsG1088" transform="translate(52.5,159.25)"><path id="SvgjsPath1089" d="M 0 0L 112 0L 112 33L 0 33Z" stroke="rgba(50,50,50,1)" stroke-width="2" fill-opacity="1" fill="#ffffff"></path><g id="SvgjsG1090"><text id="SvgjsText1091" font-family="微软雅黑" text-anchor="middle" font-size="13px" width="92px" fill="#323232" font-weight="400" align="middle" lineHeight="125%" anchor="middle" family="微软雅黑" size="13px" weight="400" font-style="" opacity="1" y="6.875" transform="rotate(0)"><tspan id="SvgjsTspan1092" dy="16" x="56"><tspan id="SvgjsTspan1093" style="text-decoration:;">SQL源端</tspan></tspan></text></g></g><g id="SvgjsG1094" transform="translate(52.5,217.5)"><path id="SvgjsPath1095" d="M 0 0L 112 0L 112 33L 0 33Z" stroke="rgba(50,50,50,1)" stroke-width="2" fill-opacity="1" fill="#ffffff"></path><g id="SvgjsG1096"><text id="SvgjsText1097" font-family="微软雅黑" text-anchor="middle" font-size="13px" width="92px" fill="#323232" font-weight="400" align="middle" lineHeight="125%" anchor="middle" family="微软雅黑" size="13px" weight="400" font-style="" opacity="1" y="6.875" transform="rotate(0)"><tspan id="SvgjsTspan1098" dy="16" x="56"><tspan id="SvgjsTspan1099" style="text-decoration:;">SQL转换</tspan></tspan></text></g></g><g id="SvgjsG1100" transform="translate(52.5,275.75)"><path id="SvgjsPath1101" d="M 0 0L 112 0L 112 33L 0 33Z" stroke="rgba(50,50,50,1)" stroke-width="2" fill-opacity="1" fill="#ffffff"></path><g id="SvgjsG1102"><text id="SvgjsText1103" font-family="微软雅黑" text-anchor="middle" font-size="13px" width="92px" fill="#323232" font-weight="400" align="middle" lineHeight="125%" anchor="middle" family="微软雅黑" size="13px" weight="400" font-style="" opacity="1" y="6.875" transform="rotate(0)"><tspan id="SvgjsTspan1104" dy="16" x="56"><tspan id="SvgjsTspan1105" style="text-decoration:;">SQL目标端</tspan></tspan></text></g></g><g id="SvgjsG1106" transform="translate(52.5,334)"><path id="SvgjsPath1107" d="M 0 0L 112 0L 112 33L 0 33Z" stroke="rgba(50,50,50,1)" stroke-width="2" fill-opacity="1" fill="#ffffff"></path><g id="SvgjsG1108"><text id="SvgjsText1109" font-family="微软雅黑" text-anchor="middle" font-size="13px" width="92px" fill="#323232" font-weight="400" align="middle" lineHeight="125%" anchor="middle" family="微软雅黑" size="13px" weight="400" font-style="" opacity="1" y="6.875" transform="rotate(0)"><tspan id="SvgjsTspan1110" dy="16" x="56"><tspan id="SvgjsTspan1111" style="text-decoration:;">Shell</tspan></tspan></text></g></g><g id="SvgjsG1112" transform="translate(52.5,448.5)"><path id="SvgjsPath1113" d="M 0 0L 112 0L 112 33L 0 33Z" stroke="rgba(50,50,50,1)" stroke-width="2" fill-opacity="1" fill="#ffffff"></path><g id="SvgjsG1114"><text id="SvgjsText1115" font-family="微软雅黑" text-anchor="middle" font-size="13px" width="92px" fill="#323232" font-weight="400" align="middle" lineHeight="125%" anchor="middle" family="微软雅黑" size="13px" weight="400" font-style="" opacity="1" y="6.875" transform="rotate(0)"><tspan id="SvgjsTspan1116" dy="16" x="56"><tspan id="SvgjsTspan1117" style="text-decoration:;">文件输入</tspan></tspan></text></g></g><g id="SvgjsG1118" transform="translate(52.5,506.75)"><path id="SvgjsPath1119" d="M 0 0L 112 0L 112 33L 0 33Z" stroke="rgba(50,50,50,1)" stroke-width="2" fill-opacity="1" fill="#ffffff"></path><g id="SvgjsG1120"><text id="SvgjsText1121" font-family="微软雅黑" text-anchor="middle" font-size="13px" width="92px" fill="#323232" font-weight="400" align="middle" lineHeight="125%" anchor="middle" family="微软雅黑" size="13px" weight="400" font-style="" opacity="1" y="6.875" transform="rotate(0)"><tspan id="SvgjsTspan1122" dy="16" x="56"><tspan id="SvgjsTspan1123" style="text-decoration:;">文件输出</tspan></tspan></text></g></g><g id="SvgjsG1124" transform="translate(25,110)"><path id="SvgjsPath1125" d="M 0 0L 167 0L 167 24L 0 24Z" stroke="rgba(50,50,50,1)" stroke-width="2" fill-opacity="1" fill="#ffffff"></path><g id="SvgjsG1126"><text id="SvgjsText1127" font-family="微软雅黑" text-anchor="middle" font-size="13px" width="147px" fill="#323232" font-weight="400" align="middle" lineHeight="125%" anchor="middle" family="微软雅黑" size="13px" weight="400" font-style="" opacity="1" y="2.375" transform="rotate(0)"><tspan id="SvgjsTspan1128" dy="16" x="83.5"><tspan id="SvgjsTspan1129" style="text-decoration:;">算子</tspan></tspan></text></g></g><g id="SvgjsG1130" transform="translate(52.5,391.25)"><path id="SvgjsPath1131" d="M 0 0L 112 0L 112 33L 0 33Z" stroke="rgba(50,50,50,1)" stroke-width="2" fill-opacity="1" fill="#ffffff"></path><g id="SvgjsG1132"><text id="SvgjsText1133" font-family="微软雅黑" text-anchor="middle" font-size="13px" width="92px" fill="#323232" font-weight="400" align="middle" lineHeight="125%" anchor="middle" family="微软雅黑" size="13px" weight="400" font-style="" opacity="1" y="6.875" transform="rotate(0)"><tspan id="SvgjsTspan1134" dy="16" x="56"><tspan id="SvgjsTspan1135" style="text-decoration:;">SQL脚本</tspan></tspan></text></g></g></svg>